# xmcd
#
# Track frame offsets:
#	150
#	14647
#	25762
#	36827
#	48605
#	64517
#	74807
#	88725
#	99440
#	113910
#	130925
#	143212
#
# Disc length: 2067 seconds
#
# Revision: 0
# Processed by: cddbd v1.4PL0 Copyright (c) Steve Scherf et al.
# Submitted via: dBpowerAMP V4.0
#
DISCID=ad08110c
DTITLE=Rhythm Rascals - Rocky Top
DYEAR=1900
DGENRE=Bluegrass
TTITLE0=Rocky Top
TTITLE1=Walk Softly
TTITLE2=Sitting On Top of the World
TTITLE3=Little Cabin Home on the Hills
TTITLE4=I Thought I Heard You Calling My Name
TTITLE5=Act Naturally
TTITLE6=I Overlooked an Orchid
TTITLE7=Little Birdie
TTITLE8=I'll Leave this World Loving You
TTITLE9=Serious Woman
TTITLE10=Ruby
TTITLE11=Lets Chase Each Other Round the Room
EXTD=
EXTT0=
EXTT1=
EXTT2=
EXTT3=
EXTT4=
EXTT5=
EXTT6=
EXTT7=
EXTT8=
EXTT9=
EXTT10=
EXTT11=
PLAYORDER=
